<svg width="150" height="11" viewBox="0 0 150 11" fill="none" xmlns="http://www.w3.org/2000/svg">
<path d="M142.286 10.7793V0.164822H150V2.2086H144.94V4.43367H149.39V6.51041H144.94V10.7793H142.286Z" fill="white"/>
<path d="M132.291 10.7793V0.164822H137.516C138.362 0.164822 139.06 0.335136 139.609 0.675765C140.158 1.00541 140.565 1.45592 140.829 2.02729C141.103 2.59867 141.241 3.24147 141.241 3.95569C141.241 4.6809 141.087 5.3237 140.779 5.88409C140.472 6.44448 140.032 6.884 139.461 7.20265C138.9 7.51032 138.23 7.66415 137.45 7.66415H134.945V10.7793H132.291ZM134.945 5.62038H136.856C137.417 5.62038 137.834 5.46655 138.109 5.15888C138.395 4.85122 138.538 4.44466 138.538 3.93921C138.538 3.38981 138.406 2.96677 138.142 2.67009C137.889 2.36243 137.488 2.2086 136.939 2.2086H134.945V5.62038Z" fill="white"/>
<path d="M119.64 10.7793V0.164822H122.26L125.145 6.04891L128.013 0.164822H130.617V10.7793H127.963V4.6809L125.87 8.96623H124.403L122.293 4.6809V10.7793H119.64Z" fill="white"/>
<path d="M107.319 10.7793L111.373 0.164822H114.241L118.296 10.7793H115.527L114.571 8.37288H111.027L110.088 10.7793H107.319ZM111.39 6.41152H114.208L112.791 2.71954L111.39 6.41152Z" fill="white"/>
<path d="M97.4597 10.7793V0.164822H100.113V4.28533L103.772 0.164822H106.805L103.014 4.4996L107.036 10.7793H104.201L101.366 6.19725L100.113 7.56526V10.7793H97.4597Z" fill="white"/>
<path d="M86.3215 10.7793V0.164822H88.596L93.1121 6.51041V0.164822H95.7822V10.7793H93.4912L88.9751 4.45015V10.7793H86.3215Z" fill="white"/>
<path d="M77.2274 10.7793V0.164822H85.0564V2.2086H79.881V4.43367H84.4465V6.51041H79.881V8.73548H85.0564V10.7793H77.2274Z" fill="white"/>
<path d="M66.0891 10.7793V0.164822H68.3637L72.8797 6.51041V0.164822H75.5498V10.7793H73.2588L68.7428 4.45015V10.7793H66.0891Z" fill="white"/>
<path d="M54.9509 10.7793V0.164822H57.6045V4.36774H61.758V0.164822H64.4116V10.7793H61.758V6.57634H57.6045V10.7793H54.9509Z" fill="white"/>
<path d="M48.3069 10.9441C46.5818 10.9441 45.2688 10.5046 44.3677 9.62552C43.4667 8.74647 43.0162 7.37846 43.0162 5.52149C43.0162 3.55463 43.4667 2.14267 44.3677 1.2856C45.2688 0.428533 46.5818 0 48.3069 0C50.0321 0 51.3451 0.428533 52.2462 1.2856C53.1472 2.14267 53.5977 3.55463 53.5977 5.52149C53.5977 7.37846 53.1472 8.74647 52.2462 9.62552C51.3451 10.5046 50.0321 10.9441 48.3069 10.9441ZM48.3069 8.68604C49.197 8.68604 49.8453 8.43331 50.2518 7.92786C50.6694 7.41143 50.8781 6.6093 50.8781 5.52149C50.8781 4.33478 50.6694 3.49969 50.2518 3.01621C49.8453 2.52175 49.197 2.27452 48.3069 2.27452C47.4059 2.27452 46.7466 2.52175 46.3291 3.01621C45.9225 3.49969 45.7193 4.33478 45.7193 5.52149C45.7193 6.6093 45.9225 7.41143 46.3291 7.92786C46.7466 8.43331 47.4059 8.68604 48.3069 8.68604Z" fill="white"/>
<path d="M33.4952 10.7793V0.164822H36.1489V4.28533L39.8079 0.164822H42.8406L39.0497 4.4996L43.0713 10.7793H40.2364L37.4015 6.19725L36.1489 7.56526V10.7793H33.4952Z" fill="white"/>
<path d="M20.0959 10.7793V9.42773L25.0734 2.27452H20.3431V0.164822H28.5511V1.64821L23.623 8.73548H28.65V10.7793H20.0959Z" fill="white"/>
<path d="M8.34598 10.7793L12.4006 0.164822H15.2684L19.323 10.7793H16.554L15.5981 8.37288H12.0544L11.115 10.7793H8.34598ZM12.417 6.41152H15.2355L13.818 2.71954L12.417 6.41152Z" fill="white"/>
<path d="M0 10.7793V0.164822H5.22481C6.07089 0.164822 6.76863 0.335136 7.31803 0.675765C7.86743 1.00541 8.27399 1.45592 8.5377 2.02729C8.8124 2.59867 8.94975 3.24147 8.94975 3.95569C8.94975 4.6809 8.79592 5.3237 8.48825 5.88409C8.18059 6.44448 7.74107 6.884 7.16969 7.20265C6.6093 7.51032 5.93903 7.66415 5.15888 7.66415H2.65361V10.7793H0ZM2.65361 5.62038H4.56553C5.12592 5.62038 5.54346 5.46655 5.81816 5.15888C6.10385 4.85122 6.24669 4.44466 6.24669 3.93921C6.24669 3.38981 6.11484 2.96677 5.85113 2.67009C5.5984 2.36243 5.19734 2.2086 4.64794 2.2086H2.65361V5.62038Z" fill="white"/>
</svg>
